# xmcd CD database file
#
# Track frame offsets:
#	150
#	48920
#	71845
#	99578
#	127348
#	149705
#	188688
#	215540
#	250430
#
# Disc length: 3612 seconds
#
# Revision: 1
# Processed by: cddbd v1.5.1PL2 Copyright (c) Steve Scherf et al.
# Submitted via: CDex 1.51
#
DISCID=940e1a09
DTITLE=Charles Earland - Funk Fantastique
DYEAR=2004
DGENRE=Jazz
TTITLE0=Funk Fantastique
TTITLE1=Don't Let Me Lose This Dream
TTITLE2=Never Can Say Goodbye
TTITLE3=Charles III
TTITLE4=Girl, You Need A Change Of Mind
TTITLE5=Auburn Delight
TTITLE6=My Favorite Things
TTITLE7=Grab Hole A Dish
TTITLE8=Speedball (Alternate)
EXTD=YEAR: 2004
EXTT0=
EXTT1=
EXTT2=
EXTT3=
EXTT4=
EXTT5=
EXTT6=
EXTT7=
EXTT8=
PLAYORDER=
